<svg width="363" height="607" viewBox="0 0 363 607" fill="none" xmlns="http://www.w3.org/2000/svg">
<path d="M360.8 210L362.3 210L360.8 210ZM210.939 606.061C211.525 606.646 212.475 606.646 213.06 606.061L222.606 596.515C223.192 595.929 223.192 594.979 222.606 594.393C222.021 593.808 221.071 593.808 220.485 594.393L212 602.879L203.514 594.393C202.929 593.808 201.979 593.808 201.393 594.393C200.807 594.979 200.807 595.929 201.393 596.515L210.939 606.061ZM18.6517 -0.657429C8.95408 19.2303 6.9382 35.4861 11.1629 48.9102C15.3872 62.3335 25.7498 72.6023 40.1107 80.7349C54.4657 88.8642 72.9614 94.9444 93.7303 99.9398C114.511 104.938 137.662 108.872 161.363 112.669C208.839 120.275 258.454 127.331 296.231 141.259C334.03 155.196 359.3 175.743 359.3 210L362.3 210C362.3 173.757 335.37 152.492 297.269 138.444C259.146 124.388 209.161 117.288 161.837 109.706C138.137 105.91 115.089 101.991 94.4319 97.023C73.7633 92.0517 55.5841 86.0499 41.589 78.1244C27.6 70.2024 17.9376 60.4439 14.0245 48.0097C10.1117 35.5764 11.8458 20.1447 21.3483 0.657441L18.6517 -0.657429ZM359.3 210C359.3 227.272 353.819 240.977 344.248 252.041C334.649 263.139 320.87 271.655 304.177 278.382C270.754 291.85 226.11 297.975 181.214 303.574C136.437 309.159 91.3998 314.221 57.5823 325.649C40.6604 331.368 26.403 338.724 16.3625 348.653C6.27707 358.627 0.500039 371.147 0.500041 387L3.50004 387C3.50004 371.978 8.93551 360.217 18.472 350.786C28.0534 341.311 41.8272 334.14 58.5428 328.491C92.0003 317.185 136.663 312.154 181.586 306.551C226.39 300.963 271.446 294.806 305.298 281.165C322.242 274.337 336.495 265.591 346.517 254.004C356.569 242.383 362.3 227.978 362.3 210L359.3 210ZM0.500041 387C0.500042 402.659 3.83107 415.423 9.71095 426.05C15.5878 436.673 23.9667 445.082 33.9497 452.102C53.8425 466.09 80.3442 474.699 106.484 484.283C132.744 493.912 158.727 504.547 178.169 522.538C197.527 540.453 210.5 565.762 210.5 605L213.5 605C213.5 564.988 200.223 538.86 180.206 520.337C160.273 501.891 133.756 491.088 107.516 481.467C81.1557 471.801 55.1574 463.347 35.6753 449.648C25.9709 442.824 17.9435 434.734 12.336 424.598C6.7315 414.468 3.50004 402.216 3.50004 387L0.500041 387Z" fill="white"/>
</svg>
