<svg width="602" height="607" viewBox="0 0 602 607" fill="none" xmlns="http://www.w3.org/2000/svg">
<path d="M600 210L601.5 210L600 210ZM350.939 606.061C351.525 606.646 352.474 606.646 353.06 606.061L362.606 596.515C363.192 595.929 363.192 594.979 362.606 594.393C362.02 593.808 361.071 593.808 360.485 594.393L352 602.879L343.514 594.393C342.928 593.808 341.979 593.808 341.393 594.393C340.807 594.979 340.807 595.929 341.393 596.515L350.939 606.061ZM30.8359 -0.946024C14.6842 18.928 11.1323 35.4383 18.3277 49.1567C25.4005 62.6413 42.6029 72.8092 66.2672 80.8499C113.719 96.9732 188.918 105.093 267.856 112.681C346.906 120.279 429.789 127.349 492.926 141.316C524.502 148.301 550.997 156.984 569.566 168.237C588.123 179.482 598.5 193.117 598.5 210L601.5 210C601.5 191.633 590.127 177.189 571.121 165.671C552.128 154.161 525.248 145.394 493.574 138.387C430.211 124.37 347.094 117.283 268.143 109.694C189.082 102.095 114.281 93.9956 67.2324 78.0094C43.6466 69.9954 27.4741 60.1361 20.9844 47.7632C14.6174 35.6242 17.3156 20.447 33.164 0.946036L30.8359 -0.946024ZM598.5 210C598.5 226.989 589.532 240.634 573.45 251.79C557.324 262.976 534.177 271.554 506.21 278.315C450.289 291.836 375.67 297.971 300.888 303.567C226.185 309.157 151.318 314.21 95.1394 325.6C67.0588 331.294 43.501 338.597 26.9299 348.43C10.3358 358.276 0.500004 370.825 0.500007 387L3.50001 387C3.5 372.3 12.3517 360.568 28.4608 351.01C44.5928 341.438 67.7537 334.214 95.7356 328.54C151.682 317.197 226.315 312.156 301.112 306.558C375.83 300.967 450.711 294.82 506.915 281.231C535.011 274.439 558.582 265.755 575.16 254.255C591.78 242.726 601.5 228.261 601.5 210L598.5 210ZM0.500007 387C0.500012 418.813 23.1287 438.344 56.1044 452.257C89.0789 466.169 133.013 474.734 176.677 484.34C220.456 493.971 263.993 504.653 296.584 522.749C329.091 540.798 350.5 566.091 350.5 605L353.5 605C353.5 564.659 331.158 538.514 298.04 520.126C265.007 501.785 221.043 491.029 177.322 481.41C133.486 471.766 89.9209 463.268 57.2705 449.493C24.6213 435.718 3.50001 416.937 3.50001 387L0.500007 387Z" fill="white"/>
</svg>
