<svg width="164" height="607" viewBox="0 0 164 607" fill="none" xmlns="http://www.w3.org/2000/svg">
<path d="M162 210L163.5 210L162 210ZM1.99987 387L0.499866 387V387L1.99987 387ZM94.5846 606.061C95.1704 606.646 96.1201 606.646 96.7059 606.061L106.252 596.515C106.838 595.929 106.838 594.979 106.252 594.393C105.666 593.808 104.716 593.808 104.131 594.393L95.6452 602.879L87.16 594.393C86.5742 593.808 85.6244 593.808 85.0386 594.393C84.4529 594.979 84.4529 595.929 85.0386 596.515L94.5846 606.061ZM8.56086 -0.318714C-0.0515853 39.2887 5.11861 63.8141 18.1457 80.3577C31.0907 96.7969 51.5719 105.022 72.6632 112.599C93.9098 120.232 115.81 127.223 132.482 141.008C149.02 154.682 160.5 175.142 160.5 210L163.5 210C163.5 174.358 151.702 153.006 134.394 138.696C117.22 124.496 94.7053 117.33 73.6775 109.776C52.4946 102.166 32.842 94.1718 20.5027 78.5017C8.24556 62.9359 2.981 39.4613 11.4924 0.318726L8.56086 -0.318714ZM160.5 210C160.5 244.941 150.603 265.459 135.994 278.661C121.292 291.946 101.632 298.014 81.5959 303.618C61.7056 309.181 41.3735 314.296 26.0939 325.875C10.6554 337.574 0.499868 355.742 0.499866 387L3.49987 387C3.49987 356.508 13.3443 339.301 27.9058 328.266C42.6262 317.111 62.2942 312.132 82.4039 306.507C102.368 300.923 122.708 294.71 138.006 280.886C153.397 266.978 163.5 245.559 163.5 210L160.5 210ZM0.499866 387C0.499867 418.069 6.3914 437.528 15.3652 451.678C24.3046 465.775 36.2497 474.479 47.8699 484.034C59.5189 493.612 71.0243 504.164 79.6619 522.089C88.3113 540.038 94.1452 565.513 94.1452 605L97.1452 605C97.1452 565.237 91.2735 539.274 82.3644 520.786C73.4435 502.274 61.5376 491.388 49.7752 481.716C37.984 472.021 26.5178 463.663 17.8987 450.072C9.31401 436.535 3.49987 417.681 3.49987 387L0.499866 387Z" fill="white"/>
</svg>
