<svg version="1.2" xmlns="http://www.w3.org/2000/svg" viewBox="0 0 1440 320" width="1440" height="320">
	<path fill="#263234" d="m1440 320h-12c-12 0-36 0-60 0q-36 0-72 0q-36 0-72 0q-36 0-72 0q-36 0-72 0q-36 0-72 0q-36 0-72 0q-36 0-72 0q-36 0-72 0q-36 0-72 0q-36 0-72 0q-36 0-72 0q-36 0-72 0q-36 0-72 0q-36 0-72 0q-36 0-72 0q-36 0-72 0q-36 0-72 0q-36 0-72 0c-24 0-48 0-60 0h-12v-192l12-16c12-16 36-48 60-21.3c24 26.3 48 112.3 72 149.3c24 37 48 27 72-5.3c24-31.7 48-85.7 72-112q36-40.1 72 0c24 26.3 48 80.3 72 106.6c24 26.7 48 26.7 72 10.7c24-16 48-48 72-42.7c24 5.7 48 47.7 72 53.4c24 5.3 48-26.7 72-42.7c24-16 48-16 72-5.3c24 10.3 48 32.3 72 53.3c24 21 48 43 72 5.3c24-37.3 48-133.3 72-176c24-42.3 48-32.3 72-10.6c24 21.3 48 53.3 72 58.6c24 5.7 48-16.3 72-26.6c24-10.7 48-10.7 72 10.6c24 21.7 48 63.7 72 96c24 31.7 61.4-64.2 72-85.3" />
</svg>